<mxfile host="Electron" agent="Mozilla/5.0 (Macintosh; Intel Mac OS X 10_15_7) AppleWebKit/537.36 (KHTML, like Gecko) draw.io/26.0.16 Chrome/132.0.6834.196 Electron/34.2.0 Safari/537.36" version="26.0.16">
  <diagram id="C5RBs43oDa-KdzZeNtuy" name="Page-1">
    <mxGraphModel dx="3728" dy="1267" grid="1" gridSize="10" guides="1" tooltips="1" connect="1" arrows="1" fold="1" page="1" pageScale="1" pageWidth="827" pageHeight="1169" math="0" shadow="0">
      <root>
        <mxCell id="WIyWlLk6GJQsqaUBKTNV-0" />
        <mxCell id="WIyWlLk6GJQsqaUBKTNV-1" parent="WIyWlLk6GJQsqaUBKTNV-0" />
        <mxCell id="iDxR7NSyhmdjJ9KRdK6U-24" value="&lt;p style=&quot;margin:0px;margin-top:4px;text-align:center;&quot;&gt;&lt;b&gt;TelegramParserLogs&lt;/b&gt;&lt;/p&gt;&lt;hr size=&quot;1&quot; style=&quot;border-style:solid;&quot;&gt;&lt;p style=&quot;margin:0px;margin-left:4px;&quot;&gt;&lt;br&gt;&lt;/p&gt;&lt;hr size=&quot;1&quot; style=&quot;border-style:solid;&quot;&gt;&lt;p style=&quot;margin:0px;margin-left:4px;&quot;&gt;+ Instantiated(ILogger&amp;lt;TelegramParser&amp;gt;): None&lt;/p&gt;&lt;p style=&quot;margin:0px;margin-left:4px;&quot;&gt;+ HandlingJson(&lt;span style=&quot;background-color: transparent; color: light-dark(rgb(0, 0, 0), rgb(255, 255, 255));&quot;&gt;ILogger&amp;lt;TelegramParser&amp;gt;, string): None&lt;/span&gt;&lt;/p&gt;&lt;p style=&quot;margin:0px;margin-left:4px;&quot;&gt;+ IncorrectJsonFormat(&lt;span style=&quot;background-color: transparent; color: light-dark(rgb(0, 0, 0), rgb(255, 255, 255));&quot;&gt;ILogger&amp;lt;TelegramParser&amp;gt;, string): None&lt;/span&gt;&lt;/p&gt;&lt;p style=&quot;margin:0px;margin-left:4px;&quot;&gt;&lt;span style=&quot;background-color: transparent; color: light-dark(rgb(0, 0, 0), rgb(255, 255, 255));&quot;&gt;+ UnsupportedSchema(I&lt;/span&gt;&lt;span style=&quot;background-color: transparent; color: light-dark(rgb(0, 0, 0), rgb(255, 255, 255));&quot;&gt;Logger&amp;lt;TelegramParser&amp;gt;, string, string): None&lt;/span&gt;&lt;/p&gt;&lt;p style=&quot;margin:0px;margin-left:4px;&quot;&gt;&lt;span style=&quot;background-color: transparent; color: light-dark(rgb(0, 0, 0), rgb(255, 255, 255));&quot;&gt;+ SupportedSchema(&lt;/span&gt;&lt;span style=&quot;background-color: transparent; color: light-dark(rgb(0, 0, 0), rgb(255, 255, 255));&quot;&gt;ILogger&amp;lt;TelegramParser&amp;gt;, string, string): None&lt;/span&gt;&lt;/p&gt;" style="verticalAlign=top;align=left;overflow=fill;html=1;whiteSpace=wrap;fontFamily=Courier New;" parent="WIyWlLk6GJQsqaUBKTNV-1" vertex="1">
          <mxGeometry x="-1630" y="400" width="480" height="130" as="geometry" />
        </mxCell>
        <mxCell id="ZXIbhLiGtZiZPt0HfrPu-0" value="&lt;p style=&quot;margin:0px;margin-top:4px;text-align:center;&quot;&gt;&lt;i&gt;&amp;lt;&amp;lt;Interface&amp;gt;&amp;gt;&lt;/i&gt;&lt;br&gt;&lt;b&gt;ITelegramParser&lt;/b&gt;&lt;/p&gt;&lt;hr size=&quot;1&quot; style=&quot;border-style:solid;&quot;&gt;&lt;p style=&quot;margin:0px;margin-left:4px;&quot;&gt;&lt;br&gt;&lt;/p&gt;&lt;hr size=&quot;1&quot; style=&quot;border-style:solid;&quot;&gt;&lt;p style=&quot;margin:0px;margin-left:4px;&quot;&gt;+ ParseJsonTelegram(string): Head&lt;/p&gt;&lt;p style=&quot;margin:0px;margin-left:4px;&quot;&gt;+ ParseSchemaInformation(SchemaVersionInformation): Type?&lt;/p&gt;" style="verticalAlign=top;align=left;overflow=fill;html=1;whiteSpace=wrap;fontFamily=Courier New;" parent="WIyWlLk6GJQsqaUBKTNV-1" vertex="1">
          <mxGeometry x="-1600" y="40" width="420" height="110" as="geometry" />
        </mxCell>
        <mxCell id="ZXIbhLiGtZiZPt0HfrPu-1" value="&lt;p style=&quot;margin:0px;margin-top:4px;text-align:center;&quot;&gt;&lt;b&gt;TelegramParser&lt;/b&gt;&lt;/p&gt;&lt;hr size=&quot;1&quot; style=&quot;border-style:solid;&quot;&gt;&lt;p style=&quot;margin:0px;margin-left:4px;&quot;&gt;- _options: JsonSerialiserOptions&lt;br&gt;&lt;/p&gt;&lt;p style=&quot;margin:0px;margin-left:4px;&quot;&gt;- _logger: ILogger&amp;lt;TelegramParser&amp;gt;&lt;/p&gt;&lt;p style=&quot;margin:0px;margin-left:4px;&quot;&gt;- _supportedSchemas:&lt;/p&gt;&lt;p style=&quot;margin:0px;margin-left:4px;&quot;&gt;&amp;nbsp; &amp;nbsp; Dictionarty&amp;lt;SchemaVersionInformation, Type&amp;gt;&lt;/p&gt;&lt;hr size=&quot;1&quot; style=&quot;border-style:solid;&quot;&gt;&lt;p style=&quot;margin:0px;margin-left:4px;&quot;&gt;+ TelegramParser(&lt;/p&gt;&lt;p style=&quot;margin:0px;margin-left:4px;&quot;&gt;&amp;nbsp; &amp;nbsp; JsonSerialiserOptions,&lt;/p&gt;&lt;p style=&quot;margin:0px;margin-left:4px;&quot;&gt;&amp;nbsp; &amp;nbsp; ILogger&amp;lt;TelegramParser&amp;gt;): None&lt;/p&gt;&lt;p style=&quot;margin: 0px 0px 0px 4px;&quot;&gt;+ ParseJsonTelegram(string): Head&lt;/p&gt;&lt;p style=&quot;margin: 0px 0px 0px 4px;&quot;&gt;+ ParseSchemaInformation(SchemaVersionInformation): Type?&lt;/p&gt;" style="verticalAlign=top;align=left;overflow=fill;html=1;whiteSpace=wrap;fontFamily=Courier New;" parent="WIyWlLk6GJQsqaUBKTNV-1" vertex="1">
          <mxGeometry x="-1600" y="180" width="420" height="180" as="geometry" />
        </mxCell>
        <mxCell id="ZXIbhLiGtZiZPt0HfrPu-3" value="&lt;p style=&quot;margin:0px;margin-top:4px;text-align:center;&quot;&gt;&lt;b&gt;TelegramParserException&lt;/b&gt;&lt;/p&gt;&lt;hr size=&quot;1&quot; style=&quot;border-style:solid;&quot;&gt;&lt;p style=&quot;margin:0px;margin-left:4px;&quot;&gt;&lt;br&gt;&lt;/p&gt;&lt;hr size=&quot;1&quot; style=&quot;border-style:solid;&quot;&gt;&lt;p style=&quot;margin:0px;margin-left:4px;&quot;&gt;+ TelegramParserException(): None&lt;/p&gt;&lt;p style=&quot;margin:0px;margin-left:4px;&quot;&gt;+&amp;nbsp;&lt;span style=&quot;background-color: transparent; color: light-dark(rgb(0, 0, 0), rgb(255, 255, 255));&quot;&gt;TelegramParserException(string): None&lt;/span&gt;&lt;/p&gt;&lt;p style=&quot;margin:0px;margin-left:4px;&quot;&gt;&lt;span style=&quot;background-color: transparent; color: light-dark(rgb(0, 0, 0), rgb(255, 255, 255));&quot;&gt;+&amp;nbsp;&lt;/span&gt;&lt;span style=&quot;background-color: transparent; color: light-dark(rgb(0, 0, 0), rgb(255, 255, 255));&quot;&gt;TelegramParserException(string, Exception): None&lt;/span&gt;&lt;/p&gt;" style="verticalAlign=top;align=left;overflow=fill;html=1;whiteSpace=wrap;fontFamily=Courier New;" parent="WIyWlLk6GJQsqaUBKTNV-1" vertex="1">
          <mxGeometry x="-1590" y="610" width="380" height="100" as="geometry" />
        </mxCell>
        <mxCell id="ZXIbhLiGtZiZPt0HfrPu-6" value="" style="endArrow=block;dashed=1;endFill=0;endSize=12;html=1;rounded=0;entryX=0.5;entryY=1;entryDx=0;entryDy=0;exitX=0.5;exitY=0;exitDx=0;exitDy=0;" parent="WIyWlLk6GJQsqaUBKTNV-1" source="ZXIbhLiGtZiZPt0HfrPu-1" target="ZXIbhLiGtZiZPt0HfrPu-0" edge="1">
          <mxGeometry width="160" relative="1" as="geometry">
            <mxPoint x="-1260" y="500" as="sourcePoint" />
            <mxPoint x="-1100" y="500" as="targetPoint" />
          </mxGeometry>
        </mxCell>
        <mxCell id="tco1EEomIxJA0SfDotPY-0" value="&lt;p style=&quot;margin:0px;margin-top:4px;text-align:center;&quot;&gt;&lt;i&gt;&amp;lt;&amp;lt;Interface&amp;gt;&amp;gt;&lt;/i&gt;&lt;br&gt;&lt;b&gt;ITelegramRetriever&lt;/b&gt;&lt;/p&gt;&lt;hr size=&quot;1&quot; style=&quot;border-style:solid;&quot;&gt;&lt;p style=&quot;margin:0px;margin-left:4px;&quot;&gt;&lt;br&gt;&lt;/p&gt;&lt;hr size=&quot;1&quot; style=&quot;border-style:solid;&quot;&gt;&lt;p style=&quot;margin:0px;margin-left:4px;&quot;&gt;+ GetJsonTelegramAsync(string): Task&amp;lt;Head?&amp;gt;&lt;/p&gt;" style="verticalAlign=top;align=left;overflow=fill;html=1;whiteSpace=wrap;fontFamily=Courier New;" parent="WIyWlLk6GJQsqaUBKTNV-1" vertex="1">
          <mxGeometry x="-1040" y="40" width="320" height="90" as="geometry" />
        </mxCell>
        <mxCell id="tco1EEomIxJA0SfDotPY-1" value="&lt;p style=&quot;margin:0px;margin-top:4px;text-align:center;&quot;&gt;&lt;b&gt;TelegramRetriever&lt;/b&gt;&lt;/p&gt;&lt;hr size=&quot;1&quot; style=&quot;border-style:solid;&quot;&gt;&lt;p style=&quot;margin:0px;margin-left:4px;&quot;&gt;- _client: HttpClient&lt;br&gt;&lt;/p&gt;&lt;p style=&quot;margin:0px;margin-left:4px;&quot;&gt;- _parser: ITelegramParser&lt;/p&gt;&lt;p style=&quot;margin:0px;margin-left:4px;&quot;&gt;- _authenticator: IAuthenticationHelper&lt;/p&gt;&lt;p style=&quot;margin:0px;margin-left:4px;&quot;&gt;- _logger: ILogger&amp;lt;TelegramRetriever&amp;gt;&lt;/p&gt;&lt;hr size=&quot;1&quot; style=&quot;border-style:solid;&quot;&gt;&lt;p style=&quot;margin:0px;margin-left:4px;&quot;&gt;+ TelegramRetriever(string,&lt;/p&gt;&lt;p style=&quot;margin:0px;margin-left:4px;&quot;&gt;&amp;nbsp; &amp;nbsp; ITelegramParser,&lt;/p&gt;&lt;p style=&quot;margin:0px;margin-left:4px;&quot;&gt;&amp;nbsp; &amp;nbsp; ILogger&amp;lt;TelegramRetriever&amp;gt;,&lt;/p&gt;&lt;p style=&quot;margin:0px;margin-left:4px;&quot;&gt;&amp;nbsp; &amp;nbsp; IAuthenticationHelper): None&lt;/p&gt;&lt;p style=&quot;margin:0px;margin-left:4px;&quot;&gt;+ GetJsonTelegramAsync(string): Task&amp;lt;Head?&amp;gt;&lt;/p&gt;" style="verticalAlign=top;align=left;overflow=fill;html=1;whiteSpace=wrap;fontFamily=Courier New;" parent="WIyWlLk6GJQsqaUBKTNV-1" vertex="1">
          <mxGeometry x="-1040" y="160" width="320" height="180" as="geometry" />
        </mxCell>
        <mxCell id="tco1EEomIxJA0SfDotPY-2" value="" style="endArrow=block;dashed=1;endFill=0;endSize=12;html=1;rounded=0;entryX=0.5;entryY=1;entryDx=0;entryDy=0;exitX=0.5;exitY=0;exitDx=0;exitDy=0;" parent="WIyWlLk6GJQsqaUBKTNV-1" source="tco1EEomIxJA0SfDotPY-1" target="tco1EEomIxJA0SfDotPY-0" edge="1">
          <mxGeometry width="160" relative="1" as="geometry">
            <mxPoint x="-1380" y="270" as="sourcePoint" />
            <mxPoint x="-1380" y="160" as="targetPoint" />
          </mxGeometry>
        </mxCell>
        <mxCell id="tco1EEomIxJA0SfDotPY-3" value="&lt;p style=&quot;margin:0px;margin-top:4px;text-align:center;&quot;&gt;&lt;b&gt;TelegramRetrieverLogs&lt;/b&gt;&lt;/p&gt;&lt;hr size=&quot;1&quot; style=&quot;border-style:solid;&quot;&gt;&lt;p style=&quot;margin:0px;margin-left:4px;&quot;&gt;&lt;br&gt;&lt;/p&gt;&lt;hr size=&quot;1&quot; style=&quot;border-style:solid;&quot;&gt;&lt;p style=&quot;margin:0px;margin-left:4px;&quot;&gt;+ Instantiated(ILogger&amp;lt;TelegramRetriever&amp;gt;): None&lt;/p&gt;&lt;p style=&quot;margin:0px;margin-left:4px;&quot;&gt;+ ParserExceptionIgnored(&lt;span style=&quot;background-color: transparent; color: light-dark(rgb(0, 0, 0), rgb(255, 255, 255));&quot;&gt;ILogger&amp;lt;TelegramRetriever&amp;gt;, string): None&lt;/span&gt;&lt;br&gt;&lt;/p&gt;&lt;p style=&quot;margin:0px;margin-left:4px;&quot;&gt;&lt;span style=&quot;background-color: transparent; color: light-dark(rgb(0, 0, 0), rgb(255, 255, 255));&quot;&gt;+ ApiErrorIgnored(&lt;/span&gt;&lt;span style=&quot;background-color: transparent; color: light-dark(rgb(0, 0, 0), rgb(255, 255, 255));&quot;&gt;ILogger&amp;lt;TelegramRetriever&amp;gt;, string): None&lt;/span&gt;&lt;/p&gt;&lt;p style=&quot;margin:0px;margin-left:4px;&quot;&gt;&lt;span style=&quot;background-color: transparent; color: light-dark(rgb(0, 0, 0), rgb(255, 255, 255));&quot;&gt;+ Requesting(&lt;/span&gt;&lt;span style=&quot;background-color: transparent; color: light-dark(rgb(0, 0, 0), rgb(255, 255, 255));&quot;&gt;ILogger&amp;lt;TelegramRetriever&amp;gt;, string): None&lt;/span&gt;&lt;/p&gt;&lt;p style=&quot;margin:0px;margin-left:4px;&quot;&gt;&lt;span style=&quot;background-color: transparent; color: light-dark(rgb(0, 0, 0), rgb(255, 255, 255));&quot;&gt;+ Requested(&lt;/span&gt;&lt;span style=&quot;background-color: transparent; color: light-dark(rgb(0, 0, 0), rgb(255, 255, 255));&quot;&gt;ILogger&amp;lt;TelegramRetriever&amp;gt;, string): None&lt;/span&gt;&lt;/p&gt;&lt;p style=&quot;margin:0px;margin-left:4px;&quot;&gt;&lt;span style=&quot;background-color: transparent; color: light-dark(rgb(0, 0, 0), rgb(255, 255, 255));&quot;&gt;+ NotAuthenticated(&lt;/span&gt;&lt;span style=&quot;background-color: transparent; color: light-dark(rgb(0, 0, 0), rgb(255, 255, 255));&quot;&gt;ILogger&amp;lt;TelegramRetriever&amp;gt;): None&lt;/span&gt;&lt;/p&gt;" style="verticalAlign=top;align=left;overflow=fill;html=1;whiteSpace=wrap;fontFamily=Courier New;" parent="WIyWlLk6GJQsqaUBKTNV-1" vertex="1">
          <mxGeometry x="-1120" y="400" width="480" height="150" as="geometry" />
        </mxCell>
        <mxCell id="tco1EEomIxJA0SfDotPY-4" value="&lt;p style=&quot;margin:0px;margin-top:4px;text-align:center;&quot;&gt;&lt;b&gt;Exception&lt;/b&gt;&lt;/p&gt;&lt;div style=&quot;height:2px;&quot;&gt;&lt;/div&gt;" style="verticalAlign=top;align=left;overflow=fill;html=1;whiteSpace=wrap;fontFamily=Courier New;" parent="WIyWlLk6GJQsqaUBKTNV-1" vertex="1">
          <mxGeometry x="-1440" y="560" width="80" height="20" as="geometry" />
        </mxCell>
        <mxCell id="tco1EEomIxJA0SfDotPY-5" value="&lt;p style=&quot;margin:0px;margin-top:4px;text-align:center;&quot;&gt;&lt;b&gt;TelegramParserFormatException&lt;/b&gt;&lt;/p&gt;&lt;hr size=&quot;1&quot; style=&quot;border-style:solid;&quot;&gt;&lt;p style=&quot;margin:0px;margin-left:4px;&quot;&gt;&lt;br&gt;&lt;/p&gt;&lt;hr size=&quot;1&quot; style=&quot;border-style:solid;&quot;&gt;&lt;p style=&quot;margin:0px;margin-left:4px;&quot;&gt;+ TelegramParserFormatException(): None&lt;/p&gt;&lt;p style=&quot;margin:0px;margin-left:4px;&quot;&gt;+&amp;nbsp;&lt;span style=&quot;background-color: transparent; color: light-dark(rgb(0, 0, 0), rgb(255, 255, 255));&quot;&gt;TelegramParserFormatException(string): None&lt;/span&gt;&lt;/p&gt;&lt;p style=&quot;margin:0px;margin-left:4px;&quot;&gt;&lt;span style=&quot;background-color: transparent; color: light-dark(rgb(0, 0, 0), rgb(255, 255, 255));&quot;&gt;+&amp;nbsp;&lt;/span&gt;&lt;span style=&quot;background-color: transparent; color: light-dark(rgb(0, 0, 0), rgb(255, 255, 255));&quot;&gt;TelegramParserFormatException(string, Exception): None&lt;/span&gt;&lt;/p&gt;" style="verticalAlign=top;align=left;overflow=fill;html=1;whiteSpace=wrap;fontFamily=Courier New;" parent="WIyWlLk6GJQsqaUBKTNV-1" vertex="1">
          <mxGeometry x="-1610" y="740" width="420" height="100" as="geometry" />
        </mxCell>
        <mxCell id="tco1EEomIxJA0SfDotPY-6" value="&lt;p style=&quot;margin:0px;margin-top:4px;text-align:center;&quot;&gt;&lt;b&gt;TelegramParserUnsupportedException&lt;/b&gt;&lt;/p&gt;&lt;hr size=&quot;1&quot; style=&quot;border-style:solid;&quot;&gt;&lt;p style=&quot;margin:0px;margin-left:4px;&quot;&gt;&lt;br&gt;&lt;/p&gt;&lt;hr size=&quot;1&quot; style=&quot;border-style:solid;&quot;&gt;&lt;p style=&quot;margin:0px;margin-left:4px;&quot;&gt;+ TelegramParserUnsupportedException(): None&lt;/p&gt;&lt;p style=&quot;margin:0px;margin-left:4px;&quot;&gt;+&amp;nbsp;&lt;span style=&quot;background-color: transparent; color: light-dark(rgb(0, 0, 0), rgb(255, 255, 255));&quot;&gt;TelegramParserUnsupportedException(string): None&lt;/span&gt;&lt;/p&gt;&lt;p style=&quot;margin:0px;margin-left:4px;&quot;&gt;&lt;span style=&quot;background-color: transparent; color: light-dark(rgb(0, 0, 0), rgb(255, 255, 255));&quot;&gt;+&amp;nbsp;&lt;/span&gt;&lt;span style=&quot;background-color: transparent; color: light-dark(rgb(0, 0, 0), rgb(255, 255, 255));&quot;&gt;TelegramParserUnsupportedException(string, Exception): None&lt;/span&gt;&lt;/p&gt;" style="verticalAlign=top;align=left;overflow=fill;html=1;whiteSpace=wrap;fontFamily=Courier New;" parent="WIyWlLk6GJQsqaUBKTNV-1" vertex="1">
          <mxGeometry x="-1110" y="740" width="460" height="100" as="geometry" />
        </mxCell>
        <mxCell id="tco1EEomIxJA0SfDotPY-7" value="&lt;p style=&quot;margin:0px;margin-top:4px;text-align:center;&quot;&gt;&lt;b&gt;TelegramRetrieverServiceCollectionExtensions&lt;/b&gt;&lt;/p&gt;&lt;hr size=&quot;1&quot; style=&quot;border-style:solid;&quot;&gt;&lt;p style=&quot;margin:0px;margin-left:4px;&quot;&gt;&lt;br&gt;&lt;/p&gt;&lt;hr size=&quot;1&quot; style=&quot;border-style:solid;&quot;&gt;&lt;p style=&quot;margin:0px;margin-left:4px;&quot;&gt;+ AddTelegramRetriever(IServiceCollection, string)&lt;/p&gt;&lt;p style=&quot;margin:0px;margin-left:4px;&quot;&gt;&amp;nbsp; &amp;nbsp; : IServiceCollection&lt;/p&gt;" style="verticalAlign=top;align=left;overflow=fill;html=1;whiteSpace=wrap;fontFamily=Courier New;" parent="WIyWlLk6GJQsqaUBKTNV-1" vertex="1">
          <mxGeometry x="-1080" y="585" width="370" height="90" as="geometry" />
        </mxCell>
        <mxCell id="tco1EEomIxJA0SfDotPY-8" value="" style="endArrow=open;endFill=1;endSize=12;html=1;rounded=0;exitX=0.5;exitY=1;exitDx=0;exitDy=0;entryX=0.5;entryY=0;entryDx=0;entryDy=0;" parent="WIyWlLk6GJQsqaUBKTNV-1" source="ZXIbhLiGtZiZPt0HfrPu-1" target="iDxR7NSyhmdjJ9KRdK6U-24" edge="1">
          <mxGeometry width="160" relative="1" as="geometry">
            <mxPoint x="-1250" y="270" as="sourcePoint" />
            <mxPoint x="-1090" y="270" as="targetPoint" />
          </mxGeometry>
        </mxCell>
        <mxCell id="tco1EEomIxJA0SfDotPY-10" value="" style="endArrow=open;endFill=1;endSize=12;html=1;rounded=0;exitX=0.5;exitY=1;exitDx=0;exitDy=0;entryX=0.5;entryY=0;entryDx=0;entryDy=0;" parent="WIyWlLk6GJQsqaUBKTNV-1" source="tco1EEomIxJA0SfDotPY-1" target="tco1EEomIxJA0SfDotPY-3" edge="1">
          <mxGeometry width="160" relative="1" as="geometry">
            <mxPoint x="-1380" y="370" as="sourcePoint" />
            <mxPoint x="-1380" y="410" as="targetPoint" />
          </mxGeometry>
        </mxCell>
        <mxCell id="tco1EEomIxJA0SfDotPY-12" value="" style="endArrow=block;endSize=16;endFill=0;html=1;rounded=0;entryX=0.5;entryY=1;entryDx=0;entryDy=0;exitX=0.5;exitY=0;exitDx=0;exitDy=0;" parent="WIyWlLk6GJQsqaUBKTNV-1" source="ZXIbhLiGtZiZPt0HfrPu-3" target="tco1EEomIxJA0SfDotPY-4" edge="1">
          <mxGeometry width="160" relative="1" as="geometry">
            <mxPoint x="-1200" y="779.58" as="sourcePoint" />
            <mxPoint x="-1040" y="779.58" as="targetPoint" />
            <mxPoint as="offset" />
          </mxGeometry>
        </mxCell>
        <mxCell id="tco1EEomIxJA0SfDotPY-14" value="" style="endArrow=diamondThin;endFill=0;endSize=24;html=1;rounded=0;entryX=1;entryY=0.25;entryDx=0;entryDy=0;exitX=0;exitY=0.5;exitDx=0;exitDy=0;edgeStyle=elbowEdgeStyle;" parent="WIyWlLk6GJQsqaUBKTNV-1" source="tco1EEomIxJA0SfDotPY-1" target="ZXIbhLiGtZiZPt0HfrPu-0" edge="1">
          <mxGeometry width="160" relative="1" as="geometry">
            <mxPoint x="-1040" y="170" as="sourcePoint" />
            <mxPoint x="-880" y="170" as="targetPoint" />
          </mxGeometry>
        </mxCell>
        <mxCell id="tco1EEomIxJA0SfDotPY-16" value="" style="endArrow=block;endSize=16;endFill=0;html=1;rounded=0;entryX=0.5;entryY=1;entryDx=0;entryDy=0;exitX=0.5;exitY=0;exitDx=0;exitDy=0;edgeStyle=elbowEdgeStyle;elbow=vertical;" parent="WIyWlLk6GJQsqaUBKTNV-1" source="tco1EEomIxJA0SfDotPY-6" target="ZXIbhLiGtZiZPt0HfrPu-3" edge="1">
          <mxGeometry width="160" relative="1" as="geometry">
            <mxPoint x="-1420" y="1030" as="sourcePoint" />
            <mxPoint x="-1260" y="1030" as="targetPoint" />
            <Array as="points">
              <mxPoint x="-1140" y="730" />
            </Array>
          </mxGeometry>
        </mxCell>
        <mxCell id="tco1EEomIxJA0SfDotPY-17" value="" style="endArrow=block;endSize=16;endFill=0;html=1;rounded=0;entryX=0.5;entryY=1;entryDx=0;entryDy=0;exitX=0.5;exitY=0;exitDx=0;exitDy=0;" parent="WIyWlLk6GJQsqaUBKTNV-1" source="tco1EEomIxJA0SfDotPY-5" target="ZXIbhLiGtZiZPt0HfrPu-3" edge="1">
          <mxGeometry width="160" relative="1" as="geometry">
            <mxPoint x="-1410" y="1040" as="sourcePoint" />
            <mxPoint x="-1250" y="1040" as="targetPoint" />
          </mxGeometry>
        </mxCell>
        <mxCell id="tco1EEomIxJA0SfDotPY-18" value="" style="endArrow=open;endFill=1;endSize=12;html=1;rounded=0;entryX=0;entryY=0.75;entryDx=0;entryDy=0;exitX=0;exitY=0.5;exitDx=0;exitDy=0;edgeStyle=elbowEdgeStyle;" parent="WIyWlLk6GJQsqaUBKTNV-1" source="tco1EEomIxJA0SfDotPY-7" target="tco1EEomIxJA0SfDotPY-1" edge="1">
          <mxGeometry width="160" relative="1" as="geometry">
            <mxPoint x="-1050" y="490" as="sourcePoint" />
            <mxPoint x="-890" y="490" as="targetPoint" />
            <Array as="points">
              <mxPoint x="-1130" y="500" />
            </Array>
          </mxGeometry>
        </mxCell>
        <mxCell id="tco1EEomIxJA0SfDotPY-19" value="" style="endArrow=open;endFill=1;endSize=12;html=1;rounded=0;entryX=1;entryY=0.25;entryDx=0;entryDy=0;exitX=0;exitY=0.5;exitDx=0;exitDy=0;edgeStyle=elbowEdgeStyle;" parent="WIyWlLk6GJQsqaUBKTNV-1" source="tco1EEomIxJA0SfDotPY-7" target="ZXIbhLiGtZiZPt0HfrPu-1" edge="1">
          <mxGeometry width="160" relative="1" as="geometry">
            <mxPoint x="-1060" y="735" as="sourcePoint" />
            <mxPoint x="-1030" y="305" as="targetPoint" />
            <Array as="points">
              <mxPoint x="-1130" y="520" />
            </Array>
          </mxGeometry>
        </mxCell>
        <mxCell id="tco1EEomIxJA0SfDotPY-20" value="" style="endArrow=open;endFill=1;endSize=12;html=1;rounded=0;entryX=0;entryY=0.75;entryDx=0;entryDy=0;exitX=0;exitY=0.5;exitDx=0;exitDy=0;edgeStyle=elbowEdgeStyle;" parent="WIyWlLk6GJQsqaUBKTNV-1" source="tco1EEomIxJA0SfDotPY-7" target="tco1EEomIxJA0SfDotPY-0" edge="1">
          <mxGeometry width="160" relative="1" as="geometry">
            <mxPoint x="-1060" y="735" as="sourcePoint" />
            <mxPoint x="-1170" y="325" as="targetPoint" />
            <Array as="points">
              <mxPoint x="-1130" y="410" />
            </Array>
          </mxGeometry>
        </mxCell>
        <mxCell id="tco1EEomIxJA0SfDotPY-21" value="" style="endArrow=open;endFill=1;endSize=12;html=1;rounded=0;entryX=1;entryY=0.75;entryDx=0;entryDy=0;exitX=0;exitY=0.5;exitDx=0;exitDy=0;edgeStyle=elbowEdgeStyle;" parent="WIyWlLk6GJQsqaUBKTNV-1" source="tco1EEomIxJA0SfDotPY-7" target="ZXIbhLiGtZiZPt0HfrPu-0" edge="1">
          <mxGeometry width="160" relative="1" as="geometry">
            <mxPoint x="-1060" y="735" as="sourcePoint" />
            <mxPoint x="-1030" y="118" as="targetPoint" />
            <Array as="points">
              <mxPoint x="-1130" y="430" />
            </Array>
          </mxGeometry>
        </mxCell>
        <mxCell id="tco1EEomIxJA0SfDotPY-23" value="" style="endArrow=open;endFill=1;endSize=12;html=1;rounded=0;entryX=1;entryY=0.5;entryDx=0;entryDy=0;exitX=1;exitY=0.75;exitDx=0;exitDy=0;edgeStyle=elbowEdgeStyle;" parent="WIyWlLk6GJQsqaUBKTNV-1" source="ZXIbhLiGtZiZPt0HfrPu-1" target="tco1EEomIxJA0SfDotPY-5" edge="1">
          <mxGeometry width="160" relative="1" as="geometry">
            <mxPoint x="-1150" y="380" as="sourcePoint" />
            <mxPoint x="-970" y="410" as="targetPoint" />
            <Array as="points">
              <mxPoint x="-1140" y="560" />
            </Array>
          </mxGeometry>
        </mxCell>
        <mxCell id="tco1EEomIxJA0SfDotPY-24" value="" style="endArrow=open;endFill=1;endSize=12;html=1;rounded=0;entryX=0;entryY=0.5;entryDx=0;entryDy=0;exitX=1;exitY=0.75;exitDx=0;exitDy=0;edgeStyle=elbowEdgeStyle;" parent="WIyWlLk6GJQsqaUBKTNV-1" source="ZXIbhLiGtZiZPt0HfrPu-1" target="tco1EEomIxJA0SfDotPY-6" edge="1">
          <mxGeometry width="160" relative="1" as="geometry">
            <mxPoint x="-1170" y="325" as="sourcePoint" />
            <mxPoint x="-1180" y="800" as="targetPoint" />
            <Array as="points">
              <mxPoint x="-1140" y="560" />
            </Array>
          </mxGeometry>
        </mxCell>
      </root>
    </mxGraphModel>
  </diagram>
</mxfile>
